# xmcd CD database file
#
# Track frame offsets:
#	150
#	23895
#	38289
#	61260
#	93088
#	109944
#	131924
#	160784
#	188420
#	219316
#
# Disc length: 3169 seconds
#
# Revision: 0
# Processed by: cddbd v1.5.2PL0 Copyright (c) Steve Scherf et al.
# Submitted via: CDex 1.70beta2
#
DISCID=750c5f0a
DTITLE=Jeff Lang - Engines Moan - Live In Melbourne
DYEAR=2009
DGENRE=Blues
TTITLE0=Here She Comes Again
TTITLE1=Big Feeling
TTITLE2=`Til They Cut Me Down
TTITLE3=If I Had Possession Over Judgement Day
TTITLE4=Is All
TTITLE5=Native Dog Creek
TTITLE6=The House Carpenter
TTITLE7=My Mother Always Talked To M
TTITLE8=Un-natural Act
TTITLE9=Molasses And Stone
EXTD=YEAR: 2009
EXTT0=
EXTT1=
EXTT2=
EXTT3=
EXTT4=
EXTT5=
EXTT6=
EXTT7=
EXTT8=
EXTT9=
PLAYORDER=
